<svg width="145" height="31" viewBox="0 0 145 31" fill="none" xmlns="http://www.w3.org/2000/svg">
<path d="M9.31396 25.1626C8.66455 23.5562 8.20882 22.0181 7.94678 20.5483C7.68473 19.0786 7.55371 17.6886 7.55371 16.3784C7.55371 16.1847 7.55371 15.991 7.55371 15.7974C7.55371 15.6037 7.5651 15.41 7.58789 15.2163C6.83594 15.1252 6.26058 14.9714 5.86182 14.7549C5.47445 14.527 5.28076 14.2479 5.28076 13.9175C5.28076 13.5871 5.50863 13.3136 5.96436 13.0972C6.43148 12.8807 7.0695 12.7269 7.87842 12.6357C8.06071 11.5192 8.29997 10.5109 8.59619 9.61084C8.89242 8.71077 9.17725 7.94743 9.45068 7.3208C9.73551 6.68278 9.98047 6.19287 10.1855 5.85107C10.3906 5.49788 10.4932 5.3099 10.4932 5.28711L11.1255 5.49219C11.0799 5.62891 10.9945 5.87956 10.8691 6.24414C10.7552 6.59733 10.6185 7.07015 10.459 7.6626C10.3109 8.24365 10.1571 8.94434 9.99756 9.76465C9.83805 10.5736 9.70133 11.4964 9.5874 12.5332H9.62158C10.4875 12.5332 11.342 12.5788 12.1851 12.6699C13.0282 12.7497 13.8428 12.8864 14.6289 13.0801C15.1644 12.7839 15.6657 12.4478 16.1328 12.0718C16.5999 11.6844 17.0044 11.2629 17.3462 10.8071C17.6994 10.34 17.9728 9.8387 18.1665 9.30322C18.3716 8.75635 18.4741 8.17529 18.4741 7.56006C18.4741 6.70557 18.326 5.96501 18.0298 5.33838C17.7336 4.71175 17.3519 4.17627 16.8848 3.73193C16.429 3.2762 15.9106 2.90592 15.3296 2.62109C14.7485 2.33626 14.1732 2.1141 13.6035 1.95459C13.0452 1.79508 12.5212 1.68685 12.0312 1.62988C11.5413 1.56152 11.1483 1.52734 10.8521 1.52734C9.74691 1.52734 8.73861 1.62988 7.82715 1.83496C6.91569 2.02865 6.09538 2.2793 5.36621 2.58691C4.64844 2.88314 4.02181 3.20785 3.48633 3.56104C2.95085 3.90283 2.50651 4.22754 2.15332 4.53516C1.80013 4.83138 1.53239 5.08203 1.3501 5.28711C1.1792 5.48079 1.08805 5.58333 1.07666 5.59473L0.563965 5.16748C0.586751 5.1333 0.694987 5.00228 0.888672 4.77441C1.09375 4.54655 1.38428 4.27881 1.76025 3.97119C2.14762 3.65218 2.62044 3.31038 3.17871 2.9458C3.73698 2.58122 4.38639 2.25081 5.12695 1.95459C5.86751 1.64697 6.69352 1.39062 7.60498 1.18555C8.52783 0.980469 9.54183 0.87793 10.647 0.87793C11.3875 0.87793 12.1452 0.929199 12.9199 1.03174C13.7061 1.12288 14.4637 1.27669 15.1929 1.49316C15.9334 1.70964 16.6341 1.98877 17.2949 2.33057C17.9557 2.67236 18.5311 3.08822 19.021 3.57812C19.5109 4.06803 19.8983 4.6377 20.1831 5.28711C20.4679 5.93652 20.6104 6.67139 20.6104 7.4917C20.6104 8.03857 20.5021 8.58545 20.2856 9.13232C20.0692 9.6792 19.7616 10.2147 19.3628 10.7388C18.964 11.2629 18.4855 11.7585 17.9272 12.2256C17.369 12.6927 16.748 13.12 16.0645 13.5073C16.8278 13.7808 17.5342 14.1169 18.1836 14.5156C18.833 14.903 19.3913 15.3644 19.8584 15.8999C20.3255 16.424 20.6901 17.0221 20.9521 17.6943C21.2142 18.3665 21.3452 19.1185 21.3452 19.9502C21.3452 20.8389 21.1857 21.682 20.8667 22.4795C20.5477 23.277 20.0977 24.0119 19.5166 24.6841C18.9469 25.3563 18.2633 25.9601 17.4658 26.4956C16.6683 27.0425 15.791 27.5039 14.834 27.8799C13.877 28.2559 12.8516 28.5407 11.7578 28.7344C10.6755 28.9395 9.55892 29.042 8.4082 29.042C6.96126 29.042 5.70801 28.8711 4.64844 28.5293C3.60026 28.1989 2.72868 27.7546 2.03369 27.1963C1.3501 26.638 0.837402 26 0.495605 25.2822C0.165202 24.5531 0 23.8011 0 23.0264C0 22.5251 0.074056 22.0522 0.222168 21.6079C0.381673 21.1522 0.598145 20.7363 0.871582 20.3604C1.15641 19.973 1.49821 19.6369 1.89697 19.3521C2.29574 19.0558 2.74577 18.8223 3.24707 18.6514L3.46924 19.1812C3.0363 19.3407 2.67171 19.5799 2.37549 19.8989C2.09066 20.2179 1.8571 20.5654 1.6748 20.9414C1.50391 21.3174 1.37858 21.6991 1.29883 22.0864C1.23047 22.4738 1.19629 22.8099 1.19629 23.0947C1.19629 23.4365 1.24186 23.8068 1.33301 24.2056C1.42415 24.6043 1.57796 24.9974 1.79443 25.3848C2.0109 25.7721 2.29574 26.1481 2.64893 26.5127C3.01351 26.8773 3.46354 27.1963 3.99902 27.4697C4.53451 27.7432 5.16683 27.9596 5.896 28.1191C6.62516 28.29 7.46257 28.3755 8.4082 28.3755C9.13737 28.3755 9.91781 28.2957 10.7495 28.1362C11.5812 27.9881 12.4015 27.7603 13.2104 27.4526C14.0194 27.145 14.7941 26.7633 15.5347 26.3076C16.2752 25.8519 16.9303 25.3164 17.5 24.7012C18.0697 24.0859 18.5197 23.3966 18.8501 22.6333C19.1919 21.87 19.3628 21.0326 19.3628 20.1211C19.3628 19.3008 19.2489 18.5716 19.021 17.9336C18.7931 17.2956 18.4741 16.7316 18.064 16.2417C17.6652 15.7518 17.1981 15.3359 16.6626 14.9941C16.1271 14.641 15.5518 14.3447 14.9365 14.1055C14.0934 14.4701 13.2048 14.7606 12.2705 14.9771C11.3477 15.1821 10.3849 15.2847 9.38232 15.2847C9.35954 15.6834 9.34245 16.0993 9.33105 16.5322C9.31966 16.9538 9.31396 17.3924 9.31396 17.8481C9.31396 18.9419 9.37093 20.0869 9.48486 21.2832C9.5988 22.4795 9.764 23.7384 9.98047 25.0601L9.31396 25.1626ZM9.4165 14.584C10.0203 14.5612 10.6698 14.4757 11.3647 14.3276C12.0711 14.1681 12.7718 13.9403 13.4668 13.644C12.8174 13.4845 12.1623 13.3706 11.5015 13.3022C10.8521 13.2225 10.2254 13.1826 9.62158 13.1826H9.51904C9.49626 13.4105 9.47917 13.644 9.46777 13.8833C9.45638 14.1112 9.43929 14.3447 9.4165 14.584ZM5.98145 13.9517C5.98145 14.0314 6.10677 14.1283 6.35742 14.2422C6.60807 14.3561 7.02962 14.4473 7.62207 14.5156C7.64486 14.3105 7.66764 14.1055 7.69043 13.9004C7.71322 13.6953 7.7417 13.4959 7.77588 13.3022C7.12646 13.3934 6.66504 13.5073 6.3916 13.644C6.11816 13.7808 5.98145 13.8833 5.98145 13.9517ZM28.4204 25.7607C27.8394 25.7607 27.2811 25.6582 26.7456 25.4531C26.2101 25.248 25.7373 24.9404 25.3271 24.5303C24.9284 24.1087 24.6094 23.5846 24.3701 22.958C24.1309 22.3314 24.0112 21.5965 24.0112 20.7534C24.0112 19.728 24.1593 18.8166 24.4556 18.019C24.7518 17.2101 25.1278 16.5322 25.5835 15.9854C26.0506 15.4271 26.569 15.0055 27.1387 14.7207C27.7083 14.4245 28.2666 14.2764 28.8135 14.2764C29.5199 14.2764 30.0781 14.5099 30.4883 14.9771C30.9098 15.4442 31.1206 16.048 31.1206 16.7886C31.1206 17.4266 31.001 18.0076 30.7617 18.5317C30.5225 19.0444 30.2035 19.4888 29.8047 19.8647C29.4173 20.2293 28.9673 20.5142 28.4546 20.7192C27.9533 20.9243 27.4292 21.0269 26.8823 21.0269C26.6203 21.0269 26.3696 21.0155 26.1304 20.9927C25.9025 20.9585 25.6974 20.9243 25.5151 20.8901C25.5835 21.5965 25.7202 22.2061 25.9253 22.7188C26.1304 23.2314 26.3867 23.653 26.6943 23.9834C27.002 24.3138 27.3438 24.5588 27.7197 24.7183C28.1071 24.8778 28.5059 24.9575 28.916 24.9575C29.4287 24.9575 29.9015 24.8322 30.3345 24.5815C30.7674 24.3309 31.1662 24.0062 31.5308 23.6074C31.8953 23.1973 32.2257 22.7301 32.522 22.2061C32.8296 21.682 33.103 21.1522 33.3423 20.6167C33.5815 20.0698 33.7923 19.54 33.9746 19.0273C34.1683 18.5033 34.3392 18.0418 34.4873 17.6431L35.1538 17.814C35.0057 18.1899 34.8291 18.6457 34.624 19.1812C34.4303 19.7166 34.2025 20.2806 33.9404 20.873C33.6784 21.4541 33.3708 22.0409 33.0176 22.6333C32.6644 23.2144 32.2656 23.7384 31.8213 24.2056C31.377 24.6613 30.87 25.0373 30.3003 25.3335C29.742 25.6183 29.1154 25.7607 28.4204 25.7607ZM28.8477 14.9429C28.4261 14.9429 28.0103 15.0796 27.6001 15.353C27.2013 15.6151 26.8424 15.9797 26.5234 16.4468C26.2044 16.9139 25.9424 17.4665 25.7373 18.1045C25.5436 18.7425 25.4468 19.4261 25.4468 20.1553C25.5949 20.2122 25.8 20.2635 26.062 20.3091C26.3354 20.3433 26.6659 20.3604 27.0532 20.3604C27.4634 20.3604 27.8678 20.2749 28.2666 20.104C28.6768 19.9217 29.0413 19.6768 29.3604 19.3691C29.6908 19.0501 29.9528 18.6742 30.1465 18.2412C30.3516 17.8083 30.4541 17.3354 30.4541 16.8228C30.4541 16.5721 30.4199 16.3328 30.3516 16.105C30.2832 15.8771 30.1807 15.6777 30.0439 15.5068C29.9072 15.3359 29.7363 15.1992 29.5312 15.0967C29.3376 14.9941 29.1097 14.9429 28.8477 14.9429ZM47.6465 17.814C47.1794 19.0786 46.7521 20.1382 46.3647 20.9927C45.9888 21.8472 45.6185 22.5365 45.2539 23.0605C44.9007 23.5846 44.5475 23.9606 44.1943 24.1885C43.8411 24.4163 43.4538 24.5303 43.0322 24.5303C42.5195 24.5303 42.0809 24.3537 41.7163 24.0005C41.3517 23.6359 41.1239 23.0776 41.0327 22.3257C40.6681 23.1118 40.1953 23.7555 39.6143 24.2568C39.0332 24.7467 38.304 24.9917 37.4268 24.9917C36.9596 24.9917 36.5096 24.9062 36.0767 24.7354C35.6551 24.5645 35.2791 24.3024 34.9487 23.9492C34.6183 23.5846 34.3506 23.1289 34.1455 22.582C33.9518 22.0352 33.855 21.3914 33.855 20.6509C33.855 19.8989 33.9461 19.1925 34.1284 18.5317C34.3221 17.8709 34.5728 17.2671 34.8804 16.7202C35.188 16.1619 35.5412 15.6663 35.9399 15.2334C36.3501 14.8005 36.7716 14.4359 37.2046 14.1396C37.6375 13.8434 38.0705 13.6156 38.5034 13.4561C38.9364 13.2965 39.3351 13.2168 39.6997 13.2168C40.0187 13.2168 40.3263 13.2567 40.6226 13.3364C40.9188 13.4162 41.1808 13.5472 41.4087 13.7295C41.6479 13.9004 41.8359 14.134 41.9727 14.4302C42.1208 14.7264 42.1948 15.0967 42.1948 15.541C42.1948 16.0651 42.0923 16.5208 41.8872 16.9082C41.6935 17.2956 41.4543 17.6203 41.1694 17.8823C40.896 18.1444 40.6112 18.3551 40.3149 18.5146C40.0301 18.6742 39.8022 18.7881 39.6313 18.8564L39.4263 18.1899C39.4604 18.1899 39.5858 18.1444 39.8022 18.0532C40.0301 17.9621 40.2637 17.814 40.5029 17.6089C40.7536 17.3924 40.9814 17.119 41.1865 16.7886C41.3916 16.4582 41.4941 16.0537 41.4941 15.5752C41.4941 15.0283 41.3403 14.6125 41.0327 14.3276C40.7251 14.0314 40.332 13.8833 39.8535 13.8833C39.4889 13.8833 39.0617 14.0143 38.5718 14.2764C38.0819 14.5384 37.609 14.9486 37.1533 15.5068C36.709 16.0651 36.3273 16.7715 36.0083 17.626C35.7007 18.4805 35.5469 19.5002 35.5469 20.6851C35.5469 21.8586 35.752 22.7529 36.1621 23.3682C36.5837 23.9834 37.1476 24.291 37.854 24.291C38.2072 24.291 38.5433 24.1942 38.8623 24.0005C39.1927 23.7954 39.4946 23.5277 39.7681 23.1973C40.0415 22.8669 40.2865 22.4852 40.5029 22.0522C40.7194 21.6079 40.9074 21.1522 41.0669 20.6851C41.0669 20.3205 41.1068 19.8932 41.1865 19.4033C41.2777 18.902 41.4144 18.395 41.5967 17.8823L42.6392 18.2241C42.5822 18.3722 42.5252 18.5659 42.4683 18.8052C42.4113 19.0444 42.3543 19.3065 42.2974 19.5913C42.2518 19.8761 42.2119 20.1724 42.1777 20.48C42.1436 20.7762 42.1265 21.0667 42.1265 21.3516C42.1265 22.2402 42.2119 22.8555 42.3828 23.1973C42.5651 23.5277 42.8727 23.6929 43.3057 23.6929C43.5563 23.6929 43.8013 23.6017 44.0405 23.4194C44.2912 23.2371 44.5589 22.9181 44.8438 22.4624C45.1286 22.0067 45.4419 21.3914 45.7837 20.6167C46.1255 19.8306 46.5243 18.8394 46.98 17.6431L47.6465 17.814ZM46.9971 17.6431C47.168 17.1987 47.3503 16.7772 47.5439 16.3784C47.749 15.9683 47.9655 15.6094 48.1934 15.3018C48.4212 14.9941 48.6662 14.7492 48.9282 14.5669C49.2017 14.3732 49.5036 14.2764 49.834 14.2764C49.9935 14.2764 50.1758 14.3105 50.3809 14.3789C50.5859 14.4473 50.7796 14.584 50.9619 14.7891C51.1556 14.9941 51.3151 15.2904 51.4404 15.6777C51.5658 16.0651 51.6284 16.5778 51.6284 17.2158C51.6284 17.5462 51.6113 17.9108 51.5771 18.3096C51.543 18.7083 51.5088 19.1014 51.4746 19.4888C51.8278 18.7368 52.1753 18.1045 52.5171 17.5918C52.8703 17.0677 53.2121 16.6519 53.5425 16.3442C53.8843 16.0252 54.2204 15.7974 54.5508 15.6606C54.8812 15.5125 55.2116 15.4385 55.542 15.4385C55.6901 15.4385 55.861 15.4727 56.0547 15.541C56.2598 15.6094 56.4478 15.729 56.6187 15.8999C56.8009 16.0708 56.9491 16.3044 57.063 16.6006C57.1883 16.8968 57.251 17.2785 57.251 17.7456C57.251 18.1216 57.2225 18.4976 57.1655 18.8735C57.1086 19.2495 57.0459 19.6141 56.9775 19.9673C56.9092 20.3205 56.8465 20.6566 56.7896 20.9756C56.7326 21.2832 56.7041 21.5566 56.7041 21.7959C56.7041 22.3656 56.8066 22.8042 57.0117 23.1118C57.2168 23.408 57.5301 23.5562 57.9517 23.5562C58.2935 23.5562 58.6182 23.4308 58.9258 23.1802C59.2334 22.9181 59.5182 22.5877 59.7803 22.189C60.0537 21.7902 60.2987 21.3516 60.5151 20.873C60.743 20.3945 60.9367 19.9388 61.0962 19.5059C61.2671 19.0615 61.4095 18.6742 61.5234 18.3438C61.6374 18.002 61.7171 17.7684 61.7627 17.6431L62.4292 17.814C62.2697 18.2127 62.0988 18.6571 61.9165 19.147C61.7456 19.6255 61.5519 20.1097 61.3354 20.5996C61.119 21.0895 60.8854 21.568 60.6348 22.0352C60.3841 22.4909 60.105 22.8953 59.7974 23.2485C59.4897 23.6017 59.1536 23.8866 58.7891 24.103C58.4359 24.3195 58.0428 24.4277 57.6099 24.4277C57.2453 24.4277 56.9263 24.3594 56.6528 24.2227C56.3908 24.0745 56.1686 23.8809 55.9863 23.6416C55.804 23.4023 55.6673 23.1175 55.5762 22.7871C55.485 22.4567 55.4395 22.1035 55.4395 21.7275C55.4395 21.306 55.4736 20.873 55.542 20.4287C55.6217 19.9844 55.7015 19.5571 55.7812 19.147C55.8724 18.7368 55.9521 18.3608 56.0205 18.019C56.1003 17.6659 56.1401 17.3753 56.1401 17.1475C56.1401 16.7943 56.0718 16.5322 55.9351 16.3613C55.7983 16.179 55.6104 16.0879 55.3711 16.0879C55.0407 16.0879 54.716 16.2075 54.397 16.4468C54.0894 16.686 53.7874 17.005 53.4912 17.4038C53.2064 17.8026 52.9329 18.2583 52.6709 18.771C52.4089 19.2837 52.1639 19.8135 51.936 20.3604C51.7196 20.8958 51.5145 21.4313 51.3208 21.9668C51.1385 22.5023 50.979 22.9865 50.8423 23.4194C50.7056 23.8524 50.5859 24.2227 50.4834 24.5303C50.3923 24.8265 50.3296 25.0145 50.2954 25.0942L49.3042 24.9233C49.4409 24.2511 49.5662 23.5448 49.6802 22.8042C49.7941 22.0522 49.891 21.3174 49.9707 20.5996C50.0618 19.8704 50.1302 19.1755 50.1758 18.5146C50.2327 17.8538 50.2612 17.2671 50.2612 16.7544C50.2612 16.0594 50.2157 15.5923 50.1245 15.353C50.0334 15.1024 49.8682 14.9771 49.6289 14.9771C49.4238 14.9771 49.2301 15.0568 49.0479 15.2163C48.8656 15.3644 48.6947 15.5695 48.5352 15.8315C48.387 16.0822 48.2389 16.3784 48.0908 16.7202C47.9427 17.062 47.8003 17.4266 47.6636 17.814L46.9971 17.6431ZM69.5215 18.9248H73.6914C74.2952 17.6943 74.8934 16.4753 75.4858 15.2676C76.0783 14.0599 76.6479 12.9035 77.1948 11.7983C77.7531 10.6932 78.2772 9.65641 78.7671 8.68799C79.257 7.71956 79.6899 6.85938 80.0659 6.10742C80.4533 5.35547 80.778 4.72884 81.04 4.22754C81.3135 3.72624 81.5015 3.39014 81.604 3.21924C81.7407 2.96859 81.8831 2.79769 82.0312 2.70654C82.1908 2.604 82.3844 2.55273 82.6123 2.55273C82.8743 2.55273 83.0851 2.63818 83.2446 2.80908C83.4041 2.96859 83.4839 3.20785 83.4839 3.52686C83.4839 3.65218 83.4725 3.9541 83.4497 4.43262C83.4269 4.91113 83.3984 5.50928 83.3643 6.22705C83.3301 6.94482 83.2902 7.74805 83.2446 8.63672C83.1991 9.52539 83.1592 10.4425 83.125 11.3882C83.0908 12.3224 83.0623 13.2567 83.0396 14.1909C83.0168 15.1138 83.0054 15.9683 83.0054 16.7544C83.0054 17.119 83.0054 17.4836 83.0054 17.8481C83.0054 18.2127 83.0168 18.5602 83.0396 18.8906C83.7573 18.8906 84.4295 18.8906 85.0562 18.8906C85.6942 18.8906 86.2126 18.8792 86.6113 18.8564V19.5229C85.9961 19.5457 85.3979 19.5571 84.8169 19.5571C84.2358 19.5571 83.6548 19.5571 83.0737 19.5571C83.1535 21.0382 83.3187 22.3826 83.5693 23.5903C83.8314 24.798 84.2244 25.8291 84.7485 26.6836C85.284 27.5495 85.9733 28.216 86.8164 28.6831C87.6595 29.1616 88.7077 29.4009 89.9609 29.4009C90.4622 29.4009 90.9977 29.3382 91.5674 29.2129L91.687 29.9136C91.106 30.0959 90.5762 30.2269 90.0977 30.3066C89.6305 30.3978 89.1805 30.4434 88.7476 30.4434C87.6994 30.4434 86.7879 30.3123 86.0132 30.0503C85.2498 29.7882 84.5947 29.418 84.0479 28.9395C83.5124 28.4609 83.0737 27.8856 82.7319 27.2134C82.3901 26.5526 82.1224 25.8234 81.9287 25.0259C81.735 24.217 81.5983 23.3568 81.5186 22.4453C81.4388 21.5225 81.3989 20.5711 81.3989 19.5913H74.4263C74.3579 19.7508 74.2896 19.9046 74.2212 20.0527C74.1528 20.1895 74.0788 20.3376 73.999 20.4971C73.4294 21.7503 72.8825 22.8384 72.3584 23.7612C71.8343 24.6727 71.3273 25.4531 70.8374 26.1025C70.3589 26.752 69.9032 27.2874 69.4702 27.709C69.0373 28.1305 68.6214 28.4723 68.2227 28.7344C67.8239 29.0078 67.4479 29.2186 67.0947 29.3667C66.7301 29.5262 66.3883 29.6629 66.0693 29.7769L65.7788 29.1787C65.7788 29.1787 65.887 29.1047 66.1035 28.9565C66.32 28.8198 66.6105 28.5977 66.9751 28.29C67.3397 27.9824 67.7669 27.578 68.2568 27.0767C68.7467 26.5754 69.2708 25.9715 69.8291 25.2651C70.3874 24.5588 70.9684 23.7384 71.5723 22.8042C72.1875 21.8586 72.7913 20.7876 73.3838 19.5913H69.5215V18.9248ZM82.5098 3.2876C82.3844 3.2876 82.1053 3.67497 81.6724 4.44971C81.2394 5.21305 80.6812 6.28402 79.9976 7.6626C79.3254 9.04118 78.5392 10.6875 77.6392 12.6016C76.7391 14.5156 75.7593 16.6234 74.6997 18.9248H81.3989C81.3989 17.888 81.4331 16.8455 81.5015 15.7974C81.5698 14.7378 81.6496 13.7067 81.7407 12.7041C81.8433 11.6901 81.9458 10.7217 82.0483 9.79883C82.1623 8.86458 82.2648 8.01009 82.356 7.23535C82.4471 6.44922 82.5212 5.75423 82.5781 5.15039C82.6465 4.54655 82.6807 4.06234 82.6807 3.69775C82.6807 3.52686 82.6636 3.41862 82.6294 3.37305C82.6066 3.31608 82.5667 3.2876 82.5098 3.2876ZM94.5239 13.8833C95.0252 13.8833 95.4525 13.9517 95.8057 14.0884C96.1702 14.2137 96.4665 14.3447 96.6943 14.4814C96.7741 12.9889 96.9051 11.6673 97.0874 10.5166C97.2697 9.35449 97.4805 8.34619 97.7197 7.4917C97.9704 6.62581 98.2381 5.90234 98.5229 5.32129C98.8078 4.72884 99.0983 4.25602 99.3945 3.90283C99.6908 3.53825 99.9756 3.2819 100.249 3.13379C100.534 2.97428 100.796 2.89453 101.035 2.89453C101.548 2.89453 101.935 3.111 102.197 3.54395C102.471 3.97689 102.607 4.61491 102.607 5.45801C102.607 5.90234 102.556 6.47201 102.454 7.16699C102.362 7.85059 102.22 8.61963 102.026 9.47412C101.844 10.3172 101.616 11.223 101.343 12.1914C101.081 13.1598 100.773 14.134 100.42 15.1138C100.078 16.0936 99.7021 17.062 99.292 18.019C98.8818 18.9761 98.4375 19.8761 97.959 20.7192C98.0046 21.3687 98.0729 21.8927 98.1641 22.2915C98.2666 22.6903 98.3919 23.0036 98.54 23.2314C98.6882 23.4479 98.859 23.596 99.0527 23.6758C99.2464 23.7555 99.4629 23.7954 99.7021 23.7954C100.033 23.7954 100.352 23.6872 100.659 23.4707C100.967 23.2428 101.28 22.884 101.599 22.394C101.918 21.9041 102.249 21.2718 102.59 20.4971C102.932 19.7109 103.302 18.7596 103.701 17.6431L104.368 17.814C104.037 18.6912 103.707 19.5457 103.376 20.3774C103.046 21.1978 102.687 21.9326 102.3 22.582C101.924 23.2201 101.508 23.7327 101.052 24.1201C100.597 24.5075 100.078 24.7012 99.4971 24.7012C98.7793 24.7012 98.221 24.4904 97.8223 24.0688C97.4235 23.6359 97.1273 23.0435 96.9336 22.2915C96.2728 23.2599 95.5607 24.0347 94.7974 24.6157C94.0454 25.1854 93.2536 25.4702 92.4219 25.4702C91.9548 25.4702 91.5047 25.3848 91.0718 25.2139C90.6388 25.0316 90.2572 24.7581 89.9268 24.3936C89.5964 24.0176 89.3286 23.5448 89.1235 22.9751C88.9185 22.394 88.8159 21.6991 88.8159 20.8901C88.8159 20.047 88.9469 19.2096 89.209 18.3779C89.4824 17.5462 89.8641 16.8 90.354 16.1392C90.8553 15.467 91.4535 14.9258 92.1484 14.5156C92.8548 14.0941 93.6466 13.8833 94.5239 13.8833ZM93.02 24.4961C93.658 24.4961 94.2961 24.217 94.9341 23.6587C95.5835 23.089 96.2044 22.3428 96.7969 21.4199C96.7285 20.8844 96.6829 20.3148 96.6602 19.7109C96.6374 19.1071 96.626 18.4634 96.626 17.7798C96.626 17.3468 96.626 16.9196 96.626 16.498C96.626 16.0651 96.6374 15.6493 96.6602 15.2505C96.6032 15.2049 96.5177 15.1423 96.4038 15.0625C96.3013 14.9827 96.1646 14.903 95.9937 14.8232C95.8341 14.7435 95.6462 14.6808 95.4297 14.6353C95.2246 14.5783 94.991 14.5498 94.729 14.5498C94.3416 14.5498 93.903 14.658 93.4131 14.8745C92.9232 15.091 92.4561 15.4442 92.0117 15.9341C91.5788 16.4126 91.2142 17.0392 90.918 17.814C90.6217 18.5887 90.4736 19.5343 90.4736 20.6509C90.4736 21.1864 90.5306 21.6877 90.6445 22.1548C90.7699 22.6219 90.9408 23.0321 91.1572 23.3853C91.3851 23.7271 91.6528 24.0005 91.9604 24.2056C92.2795 24.3993 92.6326 24.4961 93.02 24.4961ZM101.941 5.45801C101.941 5.28711 101.93 5.09342 101.907 4.87695C101.895 4.66048 101.861 4.4611 101.804 4.27881C101.747 4.08512 101.662 3.92562 101.548 3.80029C101.445 3.66357 101.297 3.59521 101.104 3.59521C100.636 3.59521 100.203 3.98258 99.8047 4.75732C99.4173 5.53206 99.0812 6.60303 98.7964 7.97021C98.5116 9.32601 98.2894 10.9211 98.1299 12.7554C97.9704 14.5897 97.8906 16.5664 97.8906 18.6855V19.4546C98.278 18.6912 98.6483 17.8766 99.0015 17.0107C99.3547 16.1449 99.6794 15.2733 99.9756 14.396C100.283 13.5187 100.557 12.6471 100.796 11.7812C101.035 10.9154 101.24 10.0951 101.411 9.32031C101.582 8.53418 101.713 7.81071 101.804 7.1499C101.895 6.4891 101.941 5.92513 101.941 5.45801ZM103.701 17.6431C104.066 16.5721 104.459 15.7746 104.88 15.2505C105.302 14.715 105.798 14.4473 106.367 14.4473C106.618 14.4473 106.851 14.5042 107.068 14.6182C107.296 14.7321 107.495 14.9201 107.666 15.1821C107.837 15.4328 107.968 15.7632 108.059 16.1733C108.162 16.5835 108.213 17.0848 108.213 17.6772C108.726 16.367 109.244 15.4328 109.768 14.8745C110.292 14.3162 110.862 14.0371 111.477 14.0371C111.705 14.0371 111.933 14.0827 112.161 14.1738C112.4 14.265 112.611 14.4302 112.793 14.6694C112.987 14.8973 113.146 15.2106 113.271 15.6094C113.397 16.0081 113.465 16.5094 113.477 17.1133C113.784 16.5094 114.166 16.0195 114.622 15.6436C115.089 15.2676 115.601 15.0796 116.16 15.0796C116.433 15.0796 116.707 15.1309 116.98 15.2334C117.253 15.3245 117.493 15.484 117.698 15.7119C117.914 15.9398 118.091 16.2417 118.228 16.6177C118.364 16.9823 118.433 17.438 118.433 17.9849C118.433 18.1444 118.421 18.3551 118.398 18.6172C118.376 18.8678 118.347 19.147 118.313 19.4546C118.279 19.7622 118.245 20.0755 118.21 20.3945C118.176 20.7135 118.142 21.0155 118.108 21.3003C118.074 21.5737 118.045 21.8187 118.022 22.0352C118 22.2402 117.988 22.3826 117.988 22.4624C117.988 23.1346 118.068 23.6245 118.228 23.9321C118.387 24.2397 118.678 24.3936 119.099 24.3936C119.418 24.3936 119.743 24.2056 120.073 23.8296C120.404 23.4422 120.74 22.9352 121.082 22.3086C121.423 21.682 121.771 20.9642 122.124 20.1553C122.477 19.3464 122.836 18.509 123.201 17.6431L123.867 17.814C123.537 18.6001 123.195 19.4318 122.842 20.3091C122.489 21.1864 122.101 21.9953 121.68 22.7358C121.27 23.4764 120.825 24.0916 120.347 24.5815C119.868 25.0601 119.338 25.2993 118.757 25.2993C118.085 25.2993 117.572 25.0999 117.219 24.7012C116.866 24.3024 116.689 23.6359 116.689 22.7017C116.689 22.2915 116.718 21.8586 116.775 21.4028C116.832 20.9357 116.895 20.4743 116.963 20.0186C117.043 19.5514 117.111 19.1014 117.168 18.6685C117.225 18.2241 117.253 17.8197 117.253 17.4551C117.253 17.25 117.236 17.0449 117.202 16.8398C117.168 16.6348 117.105 16.4525 117.014 16.293C116.934 16.1221 116.82 15.991 116.672 15.8999C116.536 15.7974 116.353 15.7461 116.125 15.7461C115.841 15.7461 115.567 15.8828 115.305 16.1562C115.043 16.4297 114.792 16.7943 114.553 17.25C114.314 17.7057 114.092 18.2298 113.887 18.8223C113.682 19.4033 113.499 20.0072 113.34 20.6338C113.18 21.249 113.038 21.8643 112.913 22.4795C112.787 23.0833 112.69 23.6359 112.622 24.1372L111.409 23.9321C111.409 23.9321 111.437 23.7954 111.494 23.522C111.551 23.2371 111.614 22.8783 111.682 22.4453C111.762 22.001 111.847 21.5054 111.938 20.9585C112.03 20.4002 112.109 19.842 112.178 19.2837C112.257 18.7254 112.32 18.1899 112.366 17.6772C112.423 17.1646 112.451 16.7316 112.451 16.3784C112.451 15.8999 112.36 15.5068 112.178 15.1992C111.995 14.8916 111.728 14.7378 111.375 14.7378C111.044 14.7378 110.725 14.9258 110.417 15.3018C110.121 15.6777 109.842 16.1733 109.58 16.7886C109.318 17.3924 109.073 18.0817 108.845 18.8564C108.617 19.6198 108.407 20.3945 108.213 21.1807C108.019 21.9554 107.848 22.7017 107.7 23.4194C107.552 24.1372 107.421 24.7524 107.307 25.2651L106.162 24.9917C106.322 24.2056 106.464 23.408 106.589 22.5991C106.703 21.9041 106.806 21.1408 106.897 20.3091C106.988 19.4774 107.034 18.6685 107.034 17.8823C107.034 17.381 107.022 16.9652 107 16.6348C106.977 16.293 106.931 16.0195 106.863 15.8145C106.794 15.6094 106.698 15.467 106.572 15.3872C106.458 15.2961 106.31 15.2505 106.128 15.2505C105.843 15.2505 105.553 15.4556 105.256 15.8657C104.96 16.2759 104.664 16.9253 104.368 17.814L103.701 17.6431ZM125.183 24.2227C124.465 24.2227 123.867 23.9321 123.389 23.3511C122.922 22.77 122.688 21.8927 122.688 20.7192C122.688 19.9445 122.842 18.959 123.149 17.7627C123.468 16.555 124.015 15.1935 124.79 13.6782L125.422 13.8491C125.354 14.1453 125.24 14.5498 125.081 15.0625C124.932 15.5752 124.779 16.1506 124.619 16.7886C124.471 17.4152 124.34 18.076 124.226 18.771C124.112 19.4546 124.055 20.1154 124.055 20.7534C124.055 21.2889 124.095 21.7275 124.175 22.0693C124.255 22.3997 124.357 22.6618 124.482 22.8555C124.619 23.0378 124.773 23.1631 124.944 23.2314C125.126 23.2998 125.32 23.334 125.525 23.334C125.855 23.334 126.169 23.2314 126.465 23.0264C126.761 22.8213 127.04 22.5535 127.302 22.2231C127.576 21.8813 127.826 21.5054 128.054 21.0952C128.293 20.6737 128.504 20.2521 128.687 19.8306C128.88 19.409 129.051 19.0103 129.199 18.6343C129.347 18.2469 129.467 17.9165 129.558 17.6431L130.225 17.814C130.099 18.1558 129.951 18.5545 129.78 19.0103C129.621 19.4546 129.433 19.916 129.216 20.3945C129.011 20.873 128.778 21.3402 128.516 21.7959C128.254 22.2516 127.957 22.6618 127.627 23.0264C127.297 23.3796 126.926 23.6701 126.516 23.8979C126.117 24.1144 125.673 24.2227 125.183 24.2227ZM127.952 8.29492C127.952 8.69368 127.798 9.0013 127.49 9.21777C127.183 9.43424 126.795 9.54248 126.328 9.54248C126.089 9.54248 125.861 9.5083 125.645 9.43994C125.439 9.36019 125.257 9.26335 125.098 9.14941C124.95 9.02409 124.83 8.88167 124.739 8.72217C124.659 8.55127 124.619 8.37467 124.619 8.19238C124.619 7.80501 124.767 7.4917 125.063 7.25244C125.371 7.01318 125.724 6.89355 126.123 6.89355C126.408 6.89355 126.664 6.93913 126.892 7.03027C127.12 7.11003 127.314 7.21826 127.473 7.35498C127.633 7.4917 127.752 7.64551 127.832 7.81641C127.912 7.97591 127.952 8.13542 127.952 8.29492ZM127.029 8.29492C127.029 8.18099 126.978 8.07845 126.875 7.9873C126.784 7.88477 126.641 7.8335 126.448 7.8335C126.095 7.8335 125.918 7.96452 125.918 8.22656C125.918 8.35189 125.969 8.46012 126.072 8.55127C126.186 8.63102 126.334 8.6709 126.516 8.6709C126.687 8.6709 126.812 8.63672 126.892 8.56836C126.983 8.48861 127.029 8.39746 127.029 8.29492ZM129.575 17.6431C129.746 17.1987 129.928 16.7772 130.122 16.3784C130.327 15.9683 130.544 15.6094 130.771 15.3018C130.999 14.9941 131.244 14.7492 131.506 14.5669C131.78 14.3732 132.082 14.2764 132.412 14.2764C132.572 14.2764 132.754 14.3105 132.959 14.3789C133.164 14.4473 133.358 14.584 133.54 14.7891C133.734 14.9941 133.893 15.2904 134.019 15.6777C134.144 16.0651 134.207 16.5778 134.207 17.2158C134.207 17.5462 134.189 17.9108 134.155 18.3096C134.121 18.7083 134.087 19.1014 134.053 19.4888C134.406 18.7368 134.753 18.1045 135.095 17.5918C135.448 17.0677 135.79 16.6519 136.121 16.3442C136.462 16.0252 136.799 15.7974 137.129 15.6606C137.459 15.5125 137.79 15.4385 138.12 15.4385C138.268 15.4385 138.439 15.4727 138.633 15.541C138.838 15.6094 139.026 15.729 139.197 15.8999C139.379 16.0708 139.527 16.3044 139.641 16.6006C139.766 16.8968 139.829 17.2785 139.829 17.7456C139.829 18.1216 139.801 18.4976 139.744 18.8735C139.687 19.2495 139.624 19.6141 139.556 19.9673C139.487 20.3205 139.425 20.6566 139.368 20.9756C139.311 21.2832 139.282 21.5566 139.282 21.7959C139.282 22.3656 139.385 22.8042 139.59 23.1118C139.795 23.408 140.108 23.5562 140.53 23.5562C140.872 23.5562 141.196 23.4308 141.504 23.1802C141.812 22.9181 142.096 22.5877 142.358 22.189C142.632 21.7902 142.877 21.3516 143.093 20.873C143.321 20.3945 143.515 19.9388 143.674 19.5059C143.845 19.0615 143.988 18.6742 144.102 18.3438C144.215 18.002 144.295 17.7684 144.341 17.6431L145.007 17.814C144.848 18.2127 144.677 18.6571 144.495 19.147C144.324 19.6255 144.13 20.1097 143.914 20.5996C143.697 21.0895 143.464 21.568 143.213 22.0352C142.962 22.4909 142.683 22.8953 142.375 23.2485C142.068 23.6017 141.732 23.8866 141.367 24.103C141.014 24.3195 140.621 24.4277 140.188 24.4277C139.823 24.4277 139.504 24.3594 139.231 24.2227C138.969 24.0745 138.747 23.8809 138.564 23.6416C138.382 23.4023 138.245 23.1175 138.154 22.7871C138.063 22.4567 138.018 22.1035 138.018 21.7275C138.018 21.306 138.052 20.873 138.12 20.4287C138.2 19.9844 138.28 19.5571 138.359 19.147C138.451 18.7368 138.53 18.3608 138.599 18.019C138.678 17.6659 138.718 17.3753 138.718 17.1475C138.718 16.7943 138.65 16.5322 138.513 16.3613C138.376 16.179 138.188 16.0879 137.949 16.0879C137.619 16.0879 137.294 16.2075 136.975 16.4468C136.667 16.686 136.366 17.005 136.069 17.4038C135.785 17.8026 135.511 18.2583 135.249 18.771C134.987 19.2837 134.742 19.8135 134.514 20.3604C134.298 20.8958 134.093 21.4313 133.899 21.9668C133.717 22.5023 133.557 22.9865 133.42 23.4194C133.284 23.8524 133.164 24.2227 133.062 24.5303C132.97 24.8265 132.908 25.0145 132.874 25.0942L131.882 24.9233C132.019 24.2511 132.144 23.5448 132.258 22.8042C132.372 22.0522 132.469 21.3174 132.549 20.5996C132.64 19.8704 132.708 19.1755 132.754 18.5146C132.811 17.8538 132.839 17.2671 132.839 16.7544C132.839 16.0594 132.794 15.5923 132.703 15.353C132.611 15.1024 132.446 14.9771 132.207 14.9771C132.002 14.9771 131.808 15.0568 131.626 15.2163C131.444 15.3644 131.273 15.5695 131.113 15.8315C130.965 16.0822 130.817 16.3784 130.669 16.7202C130.521 17.062 130.378 17.4266 130.242 17.814L129.575 17.6431Z" fill="#846046"/>
</svg>
